<?xml version="1.0" encoding="utf-8"?>
<!-- Generator: Adobe Illustrator 18.1.1, SVG Export Plug-In . SVG Version: 6.00 Build 0)  -->
<svg version="1.1" id="Layer_1" xmlns="http://www.w3.org/2000/svg" xmlns:xlink="http://www.w3.org/1999/xlink" x="0px" y="0px"
	 viewBox="0 0 392.4 417.7" enable-background="new 0 0 392.4 417.7" xml:space="preserve">
<g>
	<path fill="#F15A29" d="M263.9,143.5c0.2-7.3-5.7-13.4-13-13.6c-7.3-0.2-13.4,5.7-13.6,13c-0.1,3.8-0.2,13.3-0.2,13.3
		s9.7,0.2,13.2,0.3C257.6,156.6,263.7,150.8,263.9,143.5z"/>
	<path fill="#F15A29" d="M128.5,247c-0.2,7.3,5.7,13.4,13,13.6c7.3,0.2,13.4-5.7,13.6-13c0.1-3.6,0.3-13.2,0.3-13.2
		s-9.5-0.3-13.3-0.3C134.7,233.8,128.6,239.6,128.5,247z"/>
	<path fill="#F15A29" d="M253.2,23.3c-4.5-0.1-9,0.1-13.4,0.5c-9.2,0.8-18.2,2.7-26.7,5.5c-9.5,3.1-18.6,7.4-26.9,12.7
		c-10.2,6.5-19.3,14.5-27.1,23.7c-14.6,17.2-22.3,40.1-25.3,63.7c-23.7,2-47.7,9.3-65.5,23.2c-9.5,7.4-17.9,16.2-24.8,26.1
		c-5.7,8.1-10.3,16.9-13.9,26.3c-3.2,8.4-5.4,17.3-6.7,26.5c-0.6,4.4-0.9,8.8-1,13.3c-1.4,66.2,51.1,121.1,117.3,122.5
		c4.5,0.1,9-0.1,13.3-0.5c9.2-0.8,18.2-2.7,26.7-5.5c9.3-3.1,18.1-7.2,26.3-12.4c4.1,25.9,26.5,45.7,53.5,45.7
		c29.9,0,54.1-24.2,54.1-54.1c0-29.9-24.2-54.1-54.1-54.1c-1.9,0-3.9,0.1-5.8,0.3c2.5-8.2,4.2-16.8,5.3-25.4
		c23.7-2,47.7-9.3,65.6-23.2c9.5-7.4,17.9-16.2,24.8-26.1c5.7-8.1,10.3-16.9,13.9-26.3c3.2-8.4,5.4-17.3,6.6-26.5
		c0.6-4.4,0.9-8.8,1-13.3C372,79.6,319.4,24.7,253.2,23.3z M277.5,311.3l-7.5,42.8h12.8l-1.6,9.4h-23.6l9.2-52.2H277.5z
		 M259.4,311.3l-9.2,52.2h-10.8l9.2-52.2H259.4z M343.9,145.2c-0.1,4.5-0.5,8.9-1.2,13.3c-1.5,9.4-4.5,18.2-8.6,26.4
		c-4.9,9.9-11.6,18.7-19.5,26.2c-14.3,13.5-32.8,22.5-53.3,24.8c0,0.2-6.9,0.5-6.9,0.5c-1.9,0.1-3.8,0.1-5.8,0.1
		c-1.9,0-3.9-0.2-5.8-0.3l-7.6-0.2l-0.2,8.1c0.1,1.7,0.1,3.5,0,5.3c0,1.8-0.1,3.5-0.3,5.2c0,0-0.6,7.5-0.9,7.4
		c-3.2,20.3-13,38.4-27,52.1c-7.8,7.6-16.9,13.9-27,18.4c-8.4,3.7-17.4,6.3-26.8,7.4c-4.4,0.5-8.8,0.8-13.4,0.7
		c-51.5-1.1-92.4-43.8-91.2-95.3c0.1-4.5,0.5-9,1.2-13.3c1.5-9.4,4.5-18.2,8.6-26.4c4.9-9.9,11.6-18.7,19.5-26.2
		c14.3-13.5,32.8-22.4,53.3-24.8c0-0.2,7.2-0.5,7.2-0.5c1.8-0.1,3.6-0.1,5.4,0c1.8,0,3.6,0.1,5.4,0.3l7.9,0.2l0.2-8.8
		c0-1.5,0-3,0-4.5c0-1.5,0.1-3,0.2-4.5c0,0,0.7-8.2,0.9-8.1c3.2-20.3,13-38.4,27-52.1c7.8-7.6,16.9-13.9,27-18.4
		c8.4-3.7,17.4-6.3,26.8-7.4c4.4-0.5,8.9-0.8,13.4-0.7C304.1,51,345,93.7,343.9,145.2z"/>
	<path fill="#F15A29" d="M252,76.9c-4.6-0.1-9.1,0.3-13.4,1.1c-9.9,1.8-19,5.8-26.9,11.5c-14.6,10.6-24.8,26.9-27,45.8
		c-0.2-0.1-1,19.8-1,19.8l-0.2,8.8l-0.4,17.8l-0.3,13.6l-0.3,11.9l0,1.2l-0.6,26.6l-0.1,6.7l-0.1,5.5c0,0.4,0,0.7,0,1.1
		c0,0.4,0,0.7-0.1,1.1c-0.8,16.9-12.1,30.9-27.4,36c-4.2,1.4-8.7,2.1-13.4,2c-22.1-0.5-39.6-18.8-39.1-40.8c0.1-4.7,1-9.1,2.6-13.3
		c5.7-14.9,20-25.5,36.7-25.8c0.5,0,1,0,1.6,0c0.5,0,1,0,1.5,0.1l5.1,0.1l6.7,0.1l0.5-25.1c-4.3-1-8.7-1.5-13.3-1.6
		c-2.2,0-4.3,0-6.5,0.2c-19,1.4-35.9,10.9-47.1,25.1c-6,7.6-10.4,16.5-12.6,26.3c-1,4.3-1.5,8.7-1.6,13.3
		c-0.8,36.6,28.2,67,64.9,67.8c4.6,0.1,9-0.3,13.4-1.1c9.9-1.8,19-5.8,26.9-11.4c14.6-10.6,24.8-27,27.1-45.9c0.2,0.1,1-19.8,1-19.8
		l0.2-8.8l0.4-17.8l0.3-13.6l0.3-11.9l0-1.1l0.6-26.6l0.1-6.7c0.1,0.1,0.1,0,0,0c0,0,0.1-4.2,0.2-6.6c0.4-17.4,11.8-31.9,27.4-37.1
		c4.2-1.4,8.7-2.1,13.4-2c22.1,0.5,39.6,18.8,39.1,40.8c-0.1,4.7-1,9.1-2.6,13.2c-5.6,14.8-19.6,25.3-36.1,25.8c-0.7,0-1.4,0-2.2,0
		c-0.7,0-1.5-0.1-2.2-0.1l-4.5-0.1l-6.7-0.1l-0.5,25.1l0,1.5c0,0,19.9,0.1,19.8-0.1c19-1.4,35.9-10.9,47.1-25.1
		c6-7.6,10.4-16.5,12.6-26.3c1-4.3,1.5-8.7,1.6-13.3C317.7,108,288.7,77.7,252,76.9z"/>
</g>
</svg>
